<?xml version="1.0" encoding="UTF-8" standalone="no"?>
<!-- Created with Inkscape (http://www.inkscape.org/) -->

<svg
   width="2160"
   height="2160"
   viewBox="0 0 571.49999 571.50002"
   version="1.1"
   id="svg5"
   inkscape:version="1.1.2 (08b2f3d93c, 2022-04-05)"
   sodipodi:docname="fullnode.svg"
   xmlns:inkscape="http://www.inkscape.org/namespaces/inkscape"
   xmlns:sodipodi="http://sodipodi.sourceforge.net/DTD/sodipodi-0.dtd"
   xmlns="http://www.w3.org/2000/svg"
   xmlns:svg="http://www.w3.org/2000/svg">
  <sodipodi:namedview
     id="namedview7"
     pagecolor="#ffffff"
     bordercolor="#999999"
     borderopacity="1"
     inkscape:pageshadow="0"
     inkscape:pageopacity="0"
     inkscape:pagecheckerboard="0"
     inkscape:document-units="px"
     showgrid="false"
     units="px"
     inkscape:zoom="0.3077224"
     inkscape:cx="742.55239"
     inkscape:cy="1132.5143"
     inkscape:window-width="1366"
     inkscape:window-height="704"
     inkscape:window-x="0"
     inkscape:window-y="0"
     inkscape:window-maximized="1"
     inkscape:current-layer="layer1" />
  <defs
     id="defs2" />
  <g
     inkscape:label="Layer 1"
     inkscape:groupmode="layer"
     id="layer1">
    <g
       id="g90530"
       inkscape:export-filename="/home/human/Pictures/fullnode.png"
       inkscape:export-xdpi="96"
       inkscape:export-ydpi="96">
      <rect
         style="fill:#000000;stroke-width:5.29167;stroke-linecap:square"
         id="rect59049"
         width="285.75"
         height="285.75"
         x="146.17851"
         y="140.16284" />
      <g
         id="g61058"
         transform="matrix(1.0456046,0,0,1.0456046,-8.9750208,-43.741919)">
        <g
           id="g59802"
           transform="translate(-12.705204,-4.3074844)"
           style="stroke-width:0.79375;stroke-miterlimit:4;stroke-dasharray:none">
          <rect
             style="fill:#000000;stroke:#ffffff;stroke-width:0.79375;stroke-linecap:square;stroke-miterlimit:4;stroke-dasharray:none"
             id="rect59371"
             width="16.024752"
             height="16.024752"
             x="313.06985"
             y="198.98599" />
          <path
             d="m 325.30552,204.84674 -0.77276,-1.3728 1.49712,4.5e-4 c 0.04,0 0.0866,0.0266 0.1085,0.0625 0.0239,0.0392 0.14541,0.23967 0.29147,0.48044 0.17479,0.28821 0.38384,0.63274 0.50339,0.8294 z m -2.76906,8.31415 c -0.0362,0.065 -0.0833,0.065 -0.0986,0.065 h -0.61166 c -0.32373,-2.2e-4 -0.69718,-4.5e-4 -0.91949,-4.5e-4 l 2.37882,-4.27069 c 0.0396,-0.071 0.0387,-0.15741 -0.002,-0.22747 -0.0411,-0.0701 -0.11579,-0.11307 -0.19666,-0.11307 h -2.2e-4 l -4.05427,0.005 -0.80613,-1.39585 h 5.90518 c 4.5e-4,0 8.7e-4,-2.3e-4 10e-4,-2.3e-4 6.6e-4,0 10e-4,2.3e-4 0.002,2.3e-4 0.003,0 0.006,-0.001 0.01,-0.001 0.0133,-9e-4 0.0265,-0.002 0.0391,-0.005 0.01,-0.002 0.0192,-0.005 0.0287,-0.009 0.005,-0.002 0.01,-0.004 0.0148,-0.006 0.0442,-0.0197 0.0833,-0.0521 0.10827,-0.098 l 0.97341,-1.79957 h 1.60694 z m -2.02592,-0.16229 c -0.0517,-0.0851 -0.11889,-0.19577 -0.19203,-0.31615 -0.24595,-0.40594 -0.56106,-0.92562 -0.59664,-0.9826 -0.0119,-0.0193 -0.0175,-0.0663 0.007,-0.11107 0.057,-0.10243 1.13361,-2.04168 1.39591,-2.51435 l 1.57203,-0.002 z m -2.6809,-2.67265 -0.78137,-1.38832 0.78756,-1.47633 0.78999,1.3677 c -0.2455,0.46225 -0.62868,1.18324 -0.79618,1.49695 z m -1.04876,0.21616 c -0.39775,0 -0.7933,-2.2e-4 -0.85142,-2.2e-4 h -2.2e-4 c -0.0389,0 -0.086,-0.0273 -0.1074,-0.0623 l -0.25434,-0.41924 c -0.1812,-0.29886 -0.41234,-0.67997 -0.54051,-0.89081 h 1.62772 l 0.77253,1.37279 c -0.1686,0 -0.40726,-2.2e-4 -0.64636,-2.2e-4 z m 2.64289,-9.6865 c 0.0362,-0.0652 0.0831,-0.0652 0.0983,-0.0652 l 1.53778,2.2e-4 -2.38523,4.2707 c -0.002,0.004 -0.003,0.007 -0.005,0.0111 -0.003,0.007 -0.007,0.0144 -0.01,0.022 -0.002,0.007 -0.005,0.0144 -0.007,0.0217 -0.002,0.007 -0.003,0.0138 -0.004,0.0206 -10e-4,0.009 -0.002,0.0171 -0.002,0.0255 -2.2e-4,0.004 -10e-4,0.007 -10e-4,0.0113 0,0.003 6.6e-4,0.006 8.8e-4,0.008 2.2e-4,0.008 10e-4,0.0166 0.002,0.0248 8.7e-4,0.007 0.002,0.0138 0.004,0.0206 0.002,0.007 0.004,0.0142 0.007,0.0213 0.002,0.007 0.005,0.014 0.008,0.0206 0.003,0.007 0.007,0.0129 0.0104,0.0193 0.004,0.006 0.007,0.0124 0.0117,0.0184 0.004,0.006 0.009,0.0115 0.0141,0.0173 0.005,0.005 0.01,0.0109 0.015,0.016 0.005,0.005 0.0108,0.009 0.0166,0.0135 0.006,0.005 0.0128,0.01 0.0197,0.014 0.003,0.002 0.005,0.004 0.007,0.005 0.003,0.002 0.005,0.002 0.008,0.003 0.0117,0.006 0.0241,0.0111 0.0371,0.0151 0.005,0.001 0.009,0.003 0.0139,0.004 0.0166,0.004 0.0336,0.006 0.0515,0.006 2.2e-4,0 2.2e-4,2.2e-4 4.5e-4,2.2e-4 h 2.2e-4 2.2e-4 l 0.10098,-2.2e-4 c 4.5e-4,0 8.8e-4,2.2e-4 10e-4,2.2e-4 h 2.3e-4 l 3.95239,-0.005 c 0.10453,0.1818 0.29987,0.52389 0.46627,0.81521 0.12772,0.22392 0.23335,0.4086 0.31643,0.55382 h -5.88151 c -0.003,0 -0.005,9e-4 -0.007,0.001 -0.08,0.001 -0.15712,0.0437 -0.19778,0.11972 l -0.97362,1.82507 h -1.60584 c 0.70094,-1.25796 4.33159,-7.7723 4.37844,-7.85611 z m 2.02923,0.16739 0.14276,0.23501 c 0.25081,0.4137 0.60503,0.99767 0.6426,1.05841 0.0119,0.0193 0.0175,0.0661 -0.008,0.11108 l -1.39591,2.51435 -1.57137,0.002 z m 2.67692,2.66578 0.78182,1.38898 -0.79707,1.47322 c -0.095,-0.16583 -0.21302,-0.37246 -0.32373,-0.56645 -0.21876,-0.38333 -0.37831,-0.66246 -0.46825,-0.81854 0.16993,-0.31105 0.61918,-1.13402 0.80723,-1.47721 z"
             id="Fill-1"
             style="fill:#ffffff;fill-rule:evenodd;stroke:none;stroke-width:0.79375;stroke-miterlimit:4;stroke-dasharray:none" />
        </g>
        <g
           id="g59808"
           transform="translate(-59.888214,-4.4779354)"
           style="stroke-width:0.79375;stroke-miterlimit:4;stroke-dasharray:none">
          <rect
             style="fill:#000000;stroke:#ffffff;stroke-width:0.79375;stroke-linecap:square;stroke-miterlimit:4;stroke-dasharray:none"
             id="rect59804"
             width="16.024752"
             height="16.024752"
             x="313.06985"
             y="198.98599" />
          <path
             d="m 325.30552,204.84674 -0.77276,-1.3728 1.49712,4.5e-4 c 0.04,0 0.0866,0.0266 0.1085,0.0625 0.0239,0.0392 0.14541,0.23967 0.29147,0.48044 0.17479,0.28821 0.38384,0.63274 0.50339,0.8294 z m -2.76906,8.31415 c -0.0362,0.065 -0.0833,0.065 -0.0986,0.065 h -0.61166 c -0.32373,-2.2e-4 -0.69718,-4.5e-4 -0.91949,-4.5e-4 l 2.37882,-4.27069 c 0.0396,-0.071 0.0387,-0.15741 -0.002,-0.22747 -0.0411,-0.0701 -0.11579,-0.11307 -0.19666,-0.11307 h -2.2e-4 l -4.05427,0.005 -0.80613,-1.39585 h 5.90518 c 4.5e-4,0 8.7e-4,-2.3e-4 10e-4,-2.3e-4 6.6e-4,0 10e-4,2.3e-4 0.002,2.3e-4 0.003,0 0.006,-0.001 0.01,-0.001 0.0133,-9e-4 0.0265,-0.002 0.0391,-0.005 0.01,-0.002 0.0192,-0.005 0.0287,-0.009 0.005,-0.002 0.01,-0.004 0.0148,-0.006 0.0442,-0.0197 0.0833,-0.0521 0.10827,-0.098 l 0.97341,-1.79957 h 1.60694 z m -2.02592,-0.16229 c -0.0517,-0.0851 -0.11889,-0.19577 -0.19203,-0.31615 -0.24595,-0.40594 -0.56106,-0.92562 -0.59664,-0.9826 -0.0119,-0.0193 -0.0175,-0.0663 0.007,-0.11107 0.057,-0.10243 1.13361,-2.04168 1.39591,-2.51435 l 1.57203,-0.002 z m -2.6809,-2.67265 -0.78137,-1.38832 0.78756,-1.47633 0.78999,1.3677 c -0.2455,0.46225 -0.62868,1.18324 -0.79618,1.49695 z m -1.04876,0.21616 c -0.39775,0 -0.7933,-2.2e-4 -0.85142,-2.2e-4 h -2.2e-4 c -0.0389,0 -0.086,-0.0273 -0.1074,-0.0623 l -0.25434,-0.41924 c -0.1812,-0.29886 -0.41234,-0.67997 -0.54051,-0.89081 h 1.62772 l 0.77253,1.37279 c -0.1686,0 -0.40726,-2.2e-4 -0.64636,-2.2e-4 z m 2.64289,-9.6865 c 0.0362,-0.0652 0.0831,-0.0652 0.0983,-0.0652 l 1.53778,2.2e-4 -2.38523,4.2707 c -0.002,0.004 -0.003,0.007 -0.005,0.0111 -0.003,0.007 -0.007,0.0144 -0.01,0.022 -0.002,0.007 -0.005,0.0144 -0.007,0.0217 -0.002,0.007 -0.003,0.0138 -0.004,0.0206 -10e-4,0.009 -0.002,0.0171 -0.002,0.0255 -2.2e-4,0.004 -10e-4,0.007 -10e-4,0.0113 0,0.003 6.6e-4,0.006 8.8e-4,0.008 2.2e-4,0.008 10e-4,0.0166 0.002,0.0248 8.7e-4,0.007 0.002,0.0138 0.004,0.0206 0.002,0.007 0.004,0.0142 0.007,0.0213 0.002,0.007 0.005,0.014 0.008,0.0206 0.003,0.007 0.007,0.0129 0.0104,0.0193 0.004,0.006 0.007,0.0124 0.0117,0.0184 0.004,0.006 0.009,0.0115 0.0141,0.0173 0.005,0.005 0.01,0.0109 0.015,0.016 0.005,0.005 0.0108,0.009 0.0166,0.0135 0.006,0.005 0.0128,0.01 0.0197,0.014 0.003,0.002 0.005,0.004 0.007,0.005 0.003,0.002 0.005,0.002 0.008,0.003 0.0117,0.006 0.0241,0.0111 0.0371,0.0151 0.005,0.001 0.009,0.003 0.0139,0.004 0.0166,0.004 0.0336,0.006 0.0515,0.006 2.2e-4,0 2.2e-4,2.2e-4 4.5e-4,2.2e-4 h 2.2e-4 2.2e-4 l 0.10098,-2.2e-4 c 4.5e-4,0 8.8e-4,2.2e-4 10e-4,2.2e-4 h 2.3e-4 l 3.95239,-0.005 c 0.10453,0.1818 0.29987,0.52389 0.46627,0.81521 0.12772,0.22392 0.23335,0.4086 0.31643,0.55382 h -5.88151 c -0.003,0 -0.005,9e-4 -0.007,0.001 -0.08,0.001 -0.15712,0.0437 -0.19778,0.11972 l -0.97362,1.82507 h -1.60584 c 0.70094,-1.25796 4.33159,-7.7723 4.37844,-7.85611 z m 2.02923,0.16739 0.14276,0.23501 c 0.25081,0.4137 0.60503,0.99767 0.6426,1.05841 0.0119,0.0193 0.0175,0.0661 -0.008,0.11108 l -1.39591,2.51435 -1.57137,0.002 z m 2.67692,2.66578 0.78182,1.38898 -0.79707,1.47322 c -0.095,-0.16583 -0.21302,-0.37246 -0.32373,-0.56645 -0.21876,-0.38333 -0.37831,-0.66246 -0.46825,-0.81854 0.16993,-0.31105 0.61918,-1.13402 0.80723,-1.47721 z"
             id="path59806"
             style="fill:#ffffff;fill-rule:evenodd;stroke:none;stroke-width:0.79375;stroke-miterlimit:4;stroke-dasharray:none" />
        </g>
        <g
           id="g59814"
           transform="translate(-94.189164,30.147961)"
           style="stroke-width:0.79375;stroke-miterlimit:4;stroke-dasharray:none">
          <rect
             style="fill:#000000;stroke:#ffffff;stroke-width:0.79375;stroke-linecap:square;stroke-miterlimit:4;stroke-dasharray:none"
             id="rect59810"
             width="16.024752"
             height="16.024752"
             x="313.06985"
             y="198.98599" />
          <path
             d="m 325.30552,204.84674 -0.77276,-1.3728 1.49712,4.5e-4 c 0.04,0 0.0866,0.0266 0.1085,0.0625 0.0239,0.0392 0.14541,0.23967 0.29147,0.48044 0.17479,0.28821 0.38384,0.63274 0.50339,0.8294 z m -2.76906,8.31415 c -0.0362,0.065 -0.0833,0.065 -0.0986,0.065 h -0.61166 c -0.32373,-2.2e-4 -0.69718,-4.5e-4 -0.91949,-4.5e-4 l 2.37882,-4.27069 c 0.0396,-0.071 0.0387,-0.15741 -0.002,-0.22747 -0.0411,-0.0701 -0.11579,-0.11307 -0.19666,-0.11307 h -2.2e-4 l -4.05427,0.005 -0.80613,-1.39585 h 5.90518 c 4.5e-4,0 8.7e-4,-2.3e-4 10e-4,-2.3e-4 6.6e-4,0 10e-4,2.3e-4 0.002,2.3e-4 0.003,0 0.006,-0.001 0.01,-0.001 0.0133,-9e-4 0.0265,-0.002 0.0391,-0.005 0.01,-0.002 0.0192,-0.005 0.0287,-0.009 0.005,-0.002 0.01,-0.004 0.0148,-0.006 0.0442,-0.0197 0.0833,-0.0521 0.10827,-0.098 l 0.97341,-1.79957 h 1.60694 z m -2.02592,-0.16229 c -0.0517,-0.0851 -0.11889,-0.19577 -0.19203,-0.31615 -0.24595,-0.40594 -0.56106,-0.92562 -0.59664,-0.9826 -0.0119,-0.0193 -0.0175,-0.0663 0.007,-0.11107 0.057,-0.10243 1.13361,-2.04168 1.39591,-2.51435 l 1.57203,-0.002 z m -2.6809,-2.67265 -0.78137,-1.38832 0.78756,-1.47633 0.78999,1.3677 c -0.2455,0.46225 -0.62868,1.18324 -0.79618,1.49695 z m -1.04876,0.21616 c -0.39775,0 -0.7933,-2.2e-4 -0.85142,-2.2e-4 h -2.2e-4 c -0.0389,0 -0.086,-0.0273 -0.1074,-0.0623 l -0.25434,-0.41924 c -0.1812,-0.29886 -0.41234,-0.67997 -0.54051,-0.89081 h 1.62772 l 0.77253,1.37279 c -0.1686,0 -0.40726,-2.2e-4 -0.64636,-2.2e-4 z m 2.64289,-9.6865 c 0.0362,-0.0652 0.0831,-0.0652 0.0983,-0.0652 l 1.53778,2.2e-4 -2.38523,4.2707 c -0.002,0.004 -0.003,0.007 -0.005,0.0111 -0.003,0.007 -0.007,0.0144 -0.01,0.022 -0.002,0.007 -0.005,0.0144 -0.007,0.0217 -0.002,0.007 -0.003,0.0138 -0.004,0.0206 -10e-4,0.009 -0.002,0.0171 -0.002,0.0255 -2.2e-4,0.004 -10e-4,0.007 -10e-4,0.0113 0,0.003 6.6e-4,0.006 8.8e-4,0.008 2.2e-4,0.008 10e-4,0.0166 0.002,0.0248 8.7e-4,0.007 0.002,0.0138 0.004,0.0206 0.002,0.007 0.004,0.0142 0.007,0.0213 0.002,0.007 0.005,0.014 0.008,0.0206 0.003,0.007 0.007,0.0129 0.0104,0.0193 0.004,0.006 0.007,0.0124 0.0117,0.0184 0.004,0.006 0.009,0.0115 0.0141,0.0173 0.005,0.005 0.01,0.0109 0.015,0.016 0.005,0.005 0.0108,0.009 0.0166,0.0135 0.006,0.005 0.0128,0.01 0.0197,0.014 0.003,0.002 0.005,0.004 0.007,0.005 0.003,0.002 0.005,0.002 0.008,0.003 0.0117,0.006 0.0241,0.0111 0.0371,0.0151 0.005,0.001 0.009,0.003 0.0139,0.004 0.0166,0.004 0.0336,0.006 0.0515,0.006 2.2e-4,0 2.2e-4,2.2e-4 4.5e-4,2.2e-4 h 2.2e-4 2.2e-4 l 0.10098,-2.2e-4 c 4.5e-4,0 8.8e-4,2.2e-4 10e-4,2.2e-4 h 2.3e-4 l 3.95239,-0.005 c 0.10453,0.1818 0.29987,0.52389 0.46627,0.81521 0.12772,0.22392 0.23335,0.4086 0.31643,0.55382 h -5.88151 c -0.003,0 -0.005,9e-4 -0.007,0.001 -0.08,0.001 -0.15712,0.0437 -0.19778,0.11972 l -0.97362,1.82507 h -1.60584 c 0.70094,-1.25796 4.33159,-7.7723 4.37844,-7.85611 z m 2.02923,0.16739 0.14276,0.23501 c 0.25081,0.4137 0.60503,0.99767 0.6426,1.05841 0.0119,0.0193 0.0175,0.0661 -0.008,0.11108 l -1.39591,2.51435 -1.57137,0.002 z m 2.67692,2.66578 0.78182,1.38898 -0.79707,1.47322 c -0.095,-0.16583 -0.21302,-0.37246 -0.32373,-0.56645 -0.21876,-0.38333 -0.37831,-0.66246 -0.46825,-0.81854 0.16993,-0.31105 0.61918,-1.13402 0.80723,-1.47721 z"
             id="path59812"
             style="fill:#ffffff;fill-rule:evenodd;stroke:none;stroke-width:0.79375;stroke-miterlimit:4;stroke-dasharray:none" />
        </g>
        <g
           id="g59820"
           transform="translate(21.32705,30.125289)"
           style="stroke-width:0.79375;stroke-miterlimit:4;stroke-dasharray:none">
          <rect
             style="fill:#000000;stroke:#ffffff;stroke-width:0.79375;stroke-linecap:square;stroke-miterlimit:4;stroke-dasharray:none"
             id="rect59816"
             width="16.024752"
             height="16.024752"
             x="313.06985"
             y="198.98599" />
          <path
             d="m 325.30552,204.84674 -0.77276,-1.3728 1.49712,4.5e-4 c 0.04,0 0.0866,0.0266 0.1085,0.0625 0.0239,0.0392 0.14541,0.23967 0.29147,0.48044 0.17479,0.28821 0.38384,0.63274 0.50339,0.8294 z m -2.76906,8.31415 c -0.0362,0.065 -0.0833,0.065 -0.0986,0.065 h -0.61166 c -0.32373,-2.2e-4 -0.69718,-4.5e-4 -0.91949,-4.5e-4 l 2.37882,-4.27069 c 0.0396,-0.071 0.0387,-0.15741 -0.002,-0.22747 -0.0411,-0.0701 -0.11579,-0.11307 -0.19666,-0.11307 h -2.2e-4 l -4.05427,0.005 -0.80613,-1.39585 h 5.90518 c 4.5e-4,0 8.7e-4,-2.3e-4 10e-4,-2.3e-4 6.6e-4,0 10e-4,2.3e-4 0.002,2.3e-4 0.003,0 0.006,-0.001 0.01,-0.001 0.0133,-9e-4 0.0265,-0.002 0.0391,-0.005 0.01,-0.002 0.0192,-0.005 0.0287,-0.009 0.005,-0.002 0.01,-0.004 0.0148,-0.006 0.0442,-0.0197 0.0833,-0.0521 0.10827,-0.098 l 0.97341,-1.79957 h 1.60694 z m -2.02592,-0.16229 c -0.0517,-0.0851 -0.11889,-0.19577 -0.19203,-0.31615 -0.24595,-0.40594 -0.56106,-0.92562 -0.59664,-0.9826 -0.0119,-0.0193 -0.0175,-0.0663 0.007,-0.11107 0.057,-0.10243 1.13361,-2.04168 1.39591,-2.51435 l 1.57203,-0.002 z m -2.6809,-2.67265 -0.78137,-1.38832 0.78756,-1.47633 0.78999,1.3677 c -0.2455,0.46225 -0.62868,1.18324 -0.79618,1.49695 z m -1.04876,0.21616 c -0.39775,0 -0.7933,-2.2e-4 -0.85142,-2.2e-4 h -2.2e-4 c -0.0389,0 -0.086,-0.0273 -0.1074,-0.0623 l -0.25434,-0.41924 c -0.1812,-0.29886 -0.41234,-0.67997 -0.54051,-0.89081 h 1.62772 l 0.77253,1.37279 c -0.1686,0 -0.40726,-2.2e-4 -0.64636,-2.2e-4 z m 2.64289,-9.6865 c 0.0362,-0.0652 0.0831,-0.0652 0.0983,-0.0652 l 1.53778,2.2e-4 -2.38523,4.2707 c -0.002,0.004 -0.003,0.007 -0.005,0.0111 -0.003,0.007 -0.007,0.0144 -0.01,0.022 -0.002,0.007 -0.005,0.0144 -0.007,0.0217 -0.002,0.007 -0.003,0.0138 -0.004,0.0206 -10e-4,0.009 -0.002,0.0171 -0.002,0.0255 -2.2e-4,0.004 -10e-4,0.007 -10e-4,0.0113 0,0.003 6.6e-4,0.006 8.8e-4,0.008 2.2e-4,0.008 10e-4,0.0166 0.002,0.0248 8.7e-4,0.007 0.002,0.0138 0.004,0.0206 0.002,0.007 0.004,0.0142 0.007,0.0213 0.002,0.007 0.005,0.014 0.008,0.0206 0.003,0.007 0.007,0.0129 0.0104,0.0193 0.004,0.006 0.007,0.0124 0.0117,0.0184 0.004,0.006 0.009,0.0115 0.0141,0.0173 0.005,0.005 0.01,0.0109 0.015,0.016 0.005,0.005 0.0108,0.009 0.0166,0.0135 0.006,0.005 0.0128,0.01 0.0197,0.014 0.003,0.002 0.005,0.004 0.007,0.005 0.003,0.002 0.005,0.002 0.008,0.003 0.0117,0.006 0.0241,0.0111 0.0371,0.0151 0.005,0.001 0.009,0.003 0.0139,0.004 0.0166,0.004 0.0336,0.006 0.0515,0.006 2.2e-4,0 2.2e-4,2.2e-4 4.5e-4,2.2e-4 h 2.2e-4 2.2e-4 l 0.10098,-2.2e-4 c 4.5e-4,0 8.8e-4,2.2e-4 10e-4,2.2e-4 h 2.3e-4 l 3.95239,-0.005 c 0.10453,0.1818 0.29987,0.52389 0.46627,0.81521 0.12772,0.22392 0.23335,0.4086 0.31643,0.55382 h -5.88151 c -0.003,0 -0.005,9e-4 -0.007,0.001 -0.08,0.001 -0.15712,0.0437 -0.19778,0.11972 l -0.97362,1.82507 h -1.60584 c 0.70094,-1.25796 4.33159,-7.7723 4.37844,-7.85611 z m 2.02923,0.16739 0.14276,0.23501 c 0.25081,0.4137 0.60503,0.99767 0.6426,1.05841 0.0119,0.0193 0.0175,0.0661 -0.008,0.11108 l -1.39591,2.51435 -1.57137,0.002 z m 2.67692,2.66578 0.78182,1.38898 -0.79707,1.47322 c -0.095,-0.16583 -0.21302,-0.37246 -0.32373,-0.56645 -0.21876,-0.38333 -0.37831,-0.66246 -0.46825,-0.81854 0.16993,-0.31105 0.61918,-1.13402 0.80723,-1.47721 z"
             id="path59818"
             style="fill:#ffffff;fill-rule:evenodd;stroke:none;stroke-width:0.79375;stroke-miterlimit:4;stroke-dasharray:none" />
        </g>
        <g
           id="g59826"
           transform="translate(22.084424,78.197504)"
           style="stroke-width:0.79375;stroke-miterlimit:4;stroke-dasharray:none">
          <rect
             style="fill:#000000;stroke:#ffffff;stroke-width:0.79375;stroke-linecap:square;stroke-miterlimit:4;stroke-dasharray:none"
             id="rect59822"
             width="16.024752"
             height="16.024752"
             x="313.06985"
             y="198.98599" />
          <path
             d="m 325.30552,204.84674 -0.77276,-1.3728 1.49712,4.5e-4 c 0.04,0 0.0866,0.0266 0.1085,0.0625 0.0239,0.0392 0.14541,0.23967 0.29147,0.48044 0.17479,0.28821 0.38384,0.63274 0.50339,0.8294 z m -2.76906,8.31415 c -0.0362,0.065 -0.0833,0.065 -0.0986,0.065 h -0.61166 c -0.32373,-2.2e-4 -0.69718,-4.5e-4 -0.91949,-4.5e-4 l 2.37882,-4.27069 c 0.0396,-0.071 0.0387,-0.15741 -0.002,-0.22747 -0.0411,-0.0701 -0.11579,-0.11307 -0.19666,-0.11307 h -2.2e-4 l -4.05427,0.005 -0.80613,-1.39585 h 5.90518 c 4.5e-4,0 8.7e-4,-2.3e-4 10e-4,-2.3e-4 6.6e-4,0 10e-4,2.3e-4 0.002,2.3e-4 0.003,0 0.006,-0.001 0.01,-0.001 0.0133,-9e-4 0.0265,-0.002 0.0391,-0.005 0.01,-0.002 0.0192,-0.005 0.0287,-0.009 0.005,-0.002 0.01,-0.004 0.0148,-0.006 0.0442,-0.0197 0.0833,-0.0521 0.10827,-0.098 l 0.97341,-1.79957 h 1.60694 z m -2.02592,-0.16229 c -0.0517,-0.0851 -0.11889,-0.19577 -0.19203,-0.31615 -0.24595,-0.40594 -0.56106,-0.92562 -0.59664,-0.9826 -0.0119,-0.0193 -0.0175,-0.0663 0.007,-0.11107 0.057,-0.10243 1.13361,-2.04168 1.39591,-2.51435 l 1.57203,-0.002 z m -2.6809,-2.67265 -0.78137,-1.38832 0.78756,-1.47633 0.78999,1.3677 c -0.2455,0.46225 -0.62868,1.18324 -0.79618,1.49695 z m -1.04876,0.21616 c -0.39775,0 -0.7933,-2.2e-4 -0.85142,-2.2e-4 h -2.2e-4 c -0.0389,0 -0.086,-0.0273 -0.1074,-0.0623 l -0.25434,-0.41924 c -0.1812,-0.29886 -0.41234,-0.67997 -0.54051,-0.89081 h 1.62772 l 0.77253,1.37279 c -0.1686,0 -0.40726,-2.2e-4 -0.64636,-2.2e-4 z m 2.64289,-9.6865 c 0.0362,-0.0652 0.0831,-0.0652 0.0983,-0.0652 l 1.53778,2.2e-4 -2.38523,4.2707 c -0.002,0.004 -0.003,0.007 -0.005,0.0111 -0.003,0.007 -0.007,0.0144 -0.01,0.022 -0.002,0.007 -0.005,0.0144 -0.007,0.0217 -0.002,0.007 -0.003,0.0138 -0.004,0.0206 -10e-4,0.009 -0.002,0.0171 -0.002,0.0255 -2.2e-4,0.004 -10e-4,0.007 -10e-4,0.0113 0,0.003 6.6e-4,0.006 8.8e-4,0.008 2.2e-4,0.008 10e-4,0.0166 0.002,0.0248 8.7e-4,0.007 0.002,0.0138 0.004,0.0206 0.002,0.007 0.004,0.0142 0.007,0.0213 0.002,0.007 0.005,0.014 0.008,0.0206 0.003,0.007 0.007,0.0129 0.0104,0.0193 0.004,0.006 0.007,0.0124 0.0117,0.0184 0.004,0.006 0.009,0.0115 0.0141,0.0173 0.005,0.005 0.01,0.0109 0.015,0.016 0.005,0.005 0.0108,0.009 0.0166,0.0135 0.006,0.005 0.0128,0.01 0.0197,0.014 0.003,0.002 0.005,0.004 0.007,0.005 0.003,0.002 0.005,0.002 0.008,0.003 0.0117,0.006 0.0241,0.0111 0.0371,0.0151 0.005,0.001 0.009,0.003 0.0139,0.004 0.0166,0.004 0.0336,0.006 0.0515,0.006 2.2e-4,0 2.2e-4,2.2e-4 4.5e-4,2.2e-4 h 2.2e-4 2.2e-4 l 0.10098,-2.2e-4 c 4.5e-4,0 8.8e-4,2.2e-4 10e-4,2.2e-4 h 2.3e-4 l 3.95239,-0.005 c 0.10453,0.1818 0.29987,0.52389 0.46627,0.81521 0.12772,0.22392 0.23335,0.4086 0.31643,0.55382 h -5.88151 c -0.003,0 -0.005,9e-4 -0.007,0.001 -0.08,0.001 -0.15712,0.0437 -0.19778,0.11972 l -0.97362,1.82507 h -1.60584 c 0.70094,-1.25796 4.33159,-7.7723 4.37844,-7.85611 z m 2.02923,0.16739 0.14276,0.23501 c 0.25081,0.4137 0.60503,0.99767 0.6426,1.05841 0.0119,0.0193 0.0175,0.0661 -0.008,0.11108 l -1.39591,2.51435 -1.57137,0.002 z m 2.67692,2.66578 0.78182,1.38898 -0.79707,1.47322 c -0.095,-0.16583 -0.21302,-0.37246 -0.32373,-0.56645 -0.21876,-0.38333 -0.37831,-0.66246 -0.46825,-0.81854 0.16993,-0.31105 0.61918,-1.13402 0.80723,-1.47721 z"
             id="path59824"
             style="fill:#ffffff;fill-rule:evenodd;stroke:none;stroke-width:0.79375;stroke-miterlimit:4;stroke-dasharray:none" />
        </g>
        <g
           id="g59832"
           transform="translate(-11.995693,111.41529)"
           style="stroke-width:0.79375;stroke-miterlimit:4;stroke-dasharray:none">
          <rect
             style="fill:#000000;stroke:#ffffff;stroke-width:0.79375;stroke-linecap:square;stroke-miterlimit:4;stroke-dasharray:none"
             id="rect59828"
             width="16.024752"
             height="16.024752"
             x="313.06985"
             y="198.98599" />
          <path
             d="m 325.30552,204.84674 -0.77276,-1.3728 1.49712,4.5e-4 c 0.04,0 0.0866,0.0266 0.1085,0.0625 0.0239,0.0392 0.14541,0.23967 0.29147,0.48044 0.17479,0.28821 0.38384,0.63274 0.50339,0.8294 z m -2.76906,8.31415 c -0.0362,0.065 -0.0833,0.065 -0.0986,0.065 h -0.61166 c -0.32373,-2.2e-4 -0.69718,-4.5e-4 -0.91949,-4.5e-4 l 2.37882,-4.27069 c 0.0396,-0.071 0.0387,-0.15741 -0.002,-0.22747 -0.0411,-0.0701 -0.11579,-0.11307 -0.19666,-0.11307 h -2.2e-4 l -4.05427,0.005 -0.80613,-1.39585 h 5.90518 c 4.5e-4,0 8.7e-4,-2.3e-4 10e-4,-2.3e-4 6.6e-4,0 10e-4,2.3e-4 0.002,2.3e-4 0.003,0 0.006,-0.001 0.01,-0.001 0.0133,-9e-4 0.0265,-0.002 0.0391,-0.005 0.01,-0.002 0.0192,-0.005 0.0287,-0.009 0.005,-0.002 0.01,-0.004 0.0148,-0.006 0.0442,-0.0197 0.0833,-0.0521 0.10827,-0.098 l 0.97341,-1.79957 h 1.60694 z m -2.02592,-0.16229 c -0.0517,-0.0851 -0.11889,-0.19577 -0.19203,-0.31615 -0.24595,-0.40594 -0.56106,-0.92562 -0.59664,-0.9826 -0.0119,-0.0193 -0.0175,-0.0663 0.007,-0.11107 0.057,-0.10243 1.13361,-2.04168 1.39591,-2.51435 l 1.57203,-0.002 z m -2.6809,-2.67265 -0.78137,-1.38832 0.78756,-1.47633 0.78999,1.3677 c -0.2455,0.46225 -0.62868,1.18324 -0.79618,1.49695 z m -1.04876,0.21616 c -0.39775,0 -0.7933,-2.2e-4 -0.85142,-2.2e-4 h -2.2e-4 c -0.0389,0 -0.086,-0.0273 -0.1074,-0.0623 l -0.25434,-0.41924 c -0.1812,-0.29886 -0.41234,-0.67997 -0.54051,-0.89081 h 1.62772 l 0.77253,1.37279 c -0.1686,0 -0.40726,-2.2e-4 -0.64636,-2.2e-4 z m 2.64289,-9.6865 c 0.0362,-0.0652 0.0831,-0.0652 0.0983,-0.0652 l 1.53778,2.2e-4 -2.38523,4.2707 c -0.002,0.004 -0.003,0.007 -0.005,0.0111 -0.003,0.007 -0.007,0.0144 -0.01,0.022 -0.002,0.007 -0.005,0.0144 -0.007,0.0217 -0.002,0.007 -0.003,0.0138 -0.004,0.0206 -10e-4,0.009 -0.002,0.0171 -0.002,0.0255 -2.2e-4,0.004 -10e-4,0.007 -10e-4,0.0113 0,0.003 6.6e-4,0.006 8.8e-4,0.008 2.2e-4,0.008 10e-4,0.0166 0.002,0.0248 8.7e-4,0.007 0.002,0.0138 0.004,0.0206 0.002,0.007 0.004,0.0142 0.007,0.0213 0.002,0.007 0.005,0.014 0.008,0.0206 0.003,0.007 0.007,0.0129 0.0104,0.0193 0.004,0.006 0.007,0.0124 0.0117,0.0184 0.004,0.006 0.009,0.0115 0.0141,0.0173 0.005,0.005 0.01,0.0109 0.015,0.016 0.005,0.005 0.0108,0.009 0.0166,0.0135 0.006,0.005 0.0128,0.01 0.0197,0.014 0.003,0.002 0.005,0.004 0.007,0.005 0.003,0.002 0.005,0.002 0.008,0.003 0.0117,0.006 0.0241,0.0111 0.0371,0.0151 0.005,0.001 0.009,0.003 0.0139,0.004 0.0166,0.004 0.0336,0.006 0.0515,0.006 2.2e-4,0 2.2e-4,2.2e-4 4.5e-4,2.2e-4 h 2.2e-4 2.2e-4 l 0.10098,-2.2e-4 c 4.5e-4,0 8.8e-4,2.2e-4 10e-4,2.2e-4 h 2.3e-4 l 3.95239,-0.005 c 0.10453,0.1818 0.29987,0.52389 0.46627,0.81521 0.12772,0.22392 0.23335,0.4086 0.31643,0.55382 h -5.88151 c -0.003,0 -0.005,9e-4 -0.007,0.001 -0.08,0.001 -0.15712,0.0437 -0.19778,0.11972 l -0.97362,1.82507 h -1.60584 c 0.70094,-1.25796 4.33159,-7.7723 4.37844,-7.85611 z m 2.02923,0.16739 0.14276,0.23501 c 0.25081,0.4137 0.60503,0.99767 0.6426,1.05841 0.0119,0.0193 0.0175,0.0661 -0.008,0.11108 l -1.39591,2.51435 -1.57137,0.002 z m 2.67692,2.66578 0.78182,1.38898 -0.79707,1.47322 c -0.095,-0.16583 -0.21302,-0.37246 -0.32373,-0.56645 -0.21876,-0.38333 -0.37831,-0.66246 -0.46825,-0.81854 0.16993,-0.31105 0.61918,-1.13402 0.80723,-1.47721 z"
             id="path59830"
             style="fill:#ffffff;fill-rule:evenodd;stroke:none;stroke-width:0.79375;stroke-miterlimit:4;stroke-dasharray:none" />
        </g>
        <g
           id="g59838"
           transform="translate(-60.744669,111.37918)"
           style="stroke-width:0.79375;stroke-miterlimit:4;stroke-dasharray:none">
          <rect
             style="fill:#000000;stroke:#ffffff;stroke-width:0.79375;stroke-linecap:square;stroke-miterlimit:4;stroke-dasharray:none"
             id="rect59834"
             width="16.024752"
             height="16.024752"
             x="313.06985"
             y="198.98599" />
          <path
             d="m 325.30552,204.84674 -0.77276,-1.3728 1.49712,4.5e-4 c 0.04,0 0.0866,0.0266 0.1085,0.0625 0.0239,0.0392 0.14541,0.23967 0.29147,0.48044 0.17479,0.28821 0.38384,0.63274 0.50339,0.8294 z m -2.76906,8.31415 c -0.0362,0.065 -0.0833,0.065 -0.0986,0.065 h -0.61166 c -0.32373,-2.2e-4 -0.69718,-4.5e-4 -0.91949,-4.5e-4 l 2.37882,-4.27069 c 0.0396,-0.071 0.0387,-0.15741 -0.002,-0.22747 -0.0411,-0.0701 -0.11579,-0.11307 -0.19666,-0.11307 h -2.2e-4 l -4.05427,0.005 -0.80613,-1.39585 h 5.90518 c 4.5e-4,0 8.7e-4,-2.3e-4 10e-4,-2.3e-4 6.6e-4,0 10e-4,2.3e-4 0.002,2.3e-4 0.003,0 0.006,-0.001 0.01,-0.001 0.0133,-9e-4 0.0265,-0.002 0.0391,-0.005 0.01,-0.002 0.0192,-0.005 0.0287,-0.009 0.005,-0.002 0.01,-0.004 0.0148,-0.006 0.0442,-0.0197 0.0833,-0.0521 0.10827,-0.098 l 0.97341,-1.79957 h 1.60694 z m -2.02592,-0.16229 c -0.0517,-0.0851 -0.11889,-0.19577 -0.19203,-0.31615 -0.24595,-0.40594 -0.56106,-0.92562 -0.59664,-0.9826 -0.0119,-0.0193 -0.0175,-0.0663 0.007,-0.11107 0.057,-0.10243 1.13361,-2.04168 1.39591,-2.51435 l 1.57203,-0.002 z m -2.6809,-2.67265 -0.78137,-1.38832 0.78756,-1.47633 0.78999,1.3677 c -0.2455,0.46225 -0.62868,1.18324 -0.79618,1.49695 z m -1.04876,0.21616 c -0.39775,0 -0.7933,-2.2e-4 -0.85142,-2.2e-4 h -2.2e-4 c -0.0389,0 -0.086,-0.0273 -0.1074,-0.0623 l -0.25434,-0.41924 c -0.1812,-0.29886 -0.41234,-0.67997 -0.54051,-0.89081 h 1.62772 l 0.77253,1.37279 c -0.1686,0 -0.40726,-2.2e-4 -0.64636,-2.2e-4 z m 2.64289,-9.6865 c 0.0362,-0.0652 0.0831,-0.0652 0.0983,-0.0652 l 1.53778,2.2e-4 -2.38523,4.2707 c -0.002,0.004 -0.003,0.007 -0.005,0.0111 -0.003,0.007 -0.007,0.0144 -0.01,0.022 -0.002,0.007 -0.005,0.0144 -0.007,0.0217 -0.002,0.007 -0.003,0.0138 -0.004,0.0206 -10e-4,0.009 -0.002,0.0171 -0.002,0.0255 -2.2e-4,0.004 -10e-4,0.007 -10e-4,0.0113 0,0.003 6.6e-4,0.006 8.8e-4,0.008 2.2e-4,0.008 10e-4,0.0166 0.002,0.0248 8.7e-4,0.007 0.002,0.0138 0.004,0.0206 0.002,0.007 0.004,0.0142 0.007,0.0213 0.002,0.007 0.005,0.014 0.008,0.0206 0.003,0.007 0.007,0.0129 0.0104,0.0193 0.004,0.006 0.007,0.0124 0.0117,0.0184 0.004,0.006 0.009,0.0115 0.0141,0.0173 0.005,0.005 0.01,0.0109 0.015,0.016 0.005,0.005 0.0108,0.009 0.0166,0.0135 0.006,0.005 0.0128,0.01 0.0197,0.014 0.003,0.002 0.005,0.004 0.007,0.005 0.003,0.002 0.005,0.002 0.008,0.003 0.0117,0.006 0.0241,0.0111 0.0371,0.0151 0.005,0.001 0.009,0.003 0.0139,0.004 0.0166,0.004 0.0336,0.006 0.0515,0.006 2.2e-4,0 2.2e-4,2.2e-4 4.5e-4,2.2e-4 h 2.2e-4 2.2e-4 l 0.10098,-2.2e-4 c 4.5e-4,0 8.8e-4,2.2e-4 10e-4,2.2e-4 h 2.3e-4 l 3.95239,-0.005 c 0.10453,0.1818 0.29987,0.52389 0.46627,0.81521 0.12772,0.22392 0.23335,0.4086 0.31643,0.55382 h -5.88151 c -0.003,0 -0.005,9e-4 -0.007,0.001 -0.08,0.001 -0.15712,0.0437 -0.19778,0.11972 l -0.97362,1.82507 h -1.60584 c 0.70094,-1.25796 4.33159,-7.7723 4.37844,-7.85611 z m 2.02923,0.16739 0.14276,0.23501 c 0.25081,0.4137 0.60503,0.99767 0.6426,1.05841 0.0119,0.0193 0.0175,0.0661 -0.008,0.11108 l -1.39591,2.51435 -1.57137,0.002 z m 2.67692,2.66578 0.78182,1.38898 -0.79707,1.47322 c -0.095,-0.16583 -0.21302,-0.37246 -0.32373,-0.56645 -0.21876,-0.38333 -0.37831,-0.66246 -0.46825,-0.81854 0.16993,-0.31105 0.61918,-1.13402 0.80723,-1.47721 z"
             id="path59836"
             style="fill:#ffffff;fill-rule:evenodd;stroke:none;stroke-width:0.79375;stroke-miterlimit:4;stroke-dasharray:none" />
        </g>
        <g
           id="g59844"
           transform="translate(-93.588804,78.639164)"
           style="stroke-width:0.79375;stroke-miterlimit:4;stroke-dasharray:none">
          <rect
             style="fill:#000000;stroke:#ffffff;stroke-width:0.79375;stroke-linecap:square;stroke-miterlimit:4;stroke-dasharray:none"
             id="rect59840"
             width="16.024752"
             height="16.024752"
             x="313.06985"
             y="198.98599" />
          <path
             d="m 325.30552,204.84674 -0.77276,-1.3728 1.49712,4.5e-4 c 0.04,0 0.0866,0.0266 0.1085,0.0625 0.0239,0.0392 0.14541,0.23967 0.29147,0.48044 0.17479,0.28821 0.38384,0.63274 0.50339,0.8294 z m -2.76906,8.31415 c -0.0362,0.065 -0.0833,0.065 -0.0986,0.065 h -0.61166 c -0.32373,-2.2e-4 -0.69718,-4.5e-4 -0.91949,-4.5e-4 l 2.37882,-4.27069 c 0.0396,-0.071 0.0387,-0.15741 -0.002,-0.22747 -0.0411,-0.0701 -0.11579,-0.11307 -0.19666,-0.11307 h -2.2e-4 l -4.05427,0.005 -0.80613,-1.39585 h 5.90518 c 4.5e-4,0 8.7e-4,-2.3e-4 10e-4,-2.3e-4 6.6e-4,0 10e-4,2.3e-4 0.002,2.3e-4 0.003,0 0.006,-0.001 0.01,-0.001 0.0133,-9e-4 0.0265,-0.002 0.0391,-0.005 0.01,-0.002 0.0192,-0.005 0.0287,-0.009 0.005,-0.002 0.01,-0.004 0.0148,-0.006 0.0442,-0.0197 0.0833,-0.0521 0.10827,-0.098 l 0.97341,-1.79957 h 1.60694 z m -2.02592,-0.16229 c -0.0517,-0.0851 -0.11889,-0.19577 -0.19203,-0.31615 -0.24595,-0.40594 -0.56106,-0.92562 -0.59664,-0.9826 -0.0119,-0.0193 -0.0175,-0.0663 0.007,-0.11107 0.057,-0.10243 1.13361,-2.04168 1.39591,-2.51435 l 1.57203,-0.002 z m -2.6809,-2.67265 -0.78137,-1.38832 0.78756,-1.47633 0.78999,1.3677 c -0.2455,0.46225 -0.62868,1.18324 -0.79618,1.49695 z m -1.04876,0.21616 c -0.39775,0 -0.7933,-2.2e-4 -0.85142,-2.2e-4 h -2.2e-4 c -0.0389,0 -0.086,-0.0273 -0.1074,-0.0623 l -0.25434,-0.41924 c -0.1812,-0.29886 -0.41234,-0.67997 -0.54051,-0.89081 h 1.62772 l 0.77253,1.37279 c -0.1686,0 -0.40726,-2.2e-4 -0.64636,-2.2e-4 z m 2.64289,-9.6865 c 0.0362,-0.0652 0.0831,-0.0652 0.0983,-0.0652 l 1.53778,2.2e-4 -2.38523,4.2707 c -0.002,0.004 -0.003,0.007 -0.005,0.0111 -0.003,0.007 -0.007,0.0144 -0.01,0.022 -0.002,0.007 -0.005,0.0144 -0.007,0.0217 -0.002,0.007 -0.003,0.0138 -0.004,0.0206 -10e-4,0.009 -0.002,0.0171 -0.002,0.0255 -2.2e-4,0.004 -10e-4,0.007 -10e-4,0.0113 0,0.003 6.6e-4,0.006 8.8e-4,0.008 2.2e-4,0.008 10e-4,0.0166 0.002,0.0248 8.7e-4,0.007 0.002,0.0138 0.004,0.0206 0.002,0.007 0.004,0.0142 0.007,0.0213 0.002,0.007 0.005,0.014 0.008,0.0206 0.003,0.007 0.007,0.0129 0.0104,0.0193 0.004,0.006 0.007,0.0124 0.0117,0.0184 0.004,0.006 0.009,0.0115 0.0141,0.0173 0.005,0.005 0.01,0.0109 0.015,0.016 0.005,0.005 0.0108,0.009 0.0166,0.0135 0.006,0.005 0.0128,0.01 0.0197,0.014 0.003,0.002 0.005,0.004 0.007,0.005 0.003,0.002 0.005,0.002 0.008,0.003 0.0117,0.006 0.0241,0.0111 0.0371,0.0151 0.005,0.001 0.009,0.003 0.0139,0.004 0.0166,0.004 0.0336,0.006 0.0515,0.006 2.2e-4,0 2.2e-4,2.2e-4 4.5e-4,2.2e-4 h 2.2e-4 2.2e-4 l 0.10098,-2.2e-4 c 4.5e-4,0 8.8e-4,2.2e-4 10e-4,2.2e-4 h 2.3e-4 l 3.95239,-0.005 c 0.10453,0.1818 0.29987,0.52389 0.46627,0.81521 0.12772,0.22392 0.23335,0.4086 0.31643,0.55382 h -5.88151 c -0.003,0 -0.005,9e-4 -0.007,0.001 -0.08,0.001 -0.15712,0.0437 -0.19778,0.11972 l -0.97362,1.82507 h -1.60584 c 0.70094,-1.25796 4.33159,-7.7723 4.37844,-7.85611 z m 2.02923,0.16739 0.14276,0.23501 c 0.25081,0.4137 0.60503,0.99767 0.6426,1.05841 0.0119,0.0193 0.0175,0.0661 -0.008,0.11108 l -1.39591,2.51435 -1.57137,0.002 z m 2.67692,2.66578 0.78182,1.38898 -0.79707,1.47322 c -0.095,-0.16583 -0.21302,-0.37246 -0.32373,-0.56645 -0.21876,-0.38333 -0.37831,-0.66246 -0.46825,-0.81854 0.16993,-0.31105 0.61918,-1.13402 0.80723,-1.47721 z"
             id="path59842"
             style="fill:#ffffff;fill-rule:evenodd;stroke:none;stroke-width:0.79375;stroke-miterlimit:4;stroke-dasharray:none" />
        </g>
        <path
           style="fill:none;stroke:#ffffff;stroke-width:0.79375;stroke-linecap:butt;stroke-linejoin:miter;stroke-miterlimit:4;stroke-dasharray:none;stroke-opacity:1"
           d="m 304.39667,214.03167 -36.38254,87.85947"
           id="path59879" />
        <path
           style="fill:#ffffff;stroke:#ffffff;stroke-width:0.79375;stroke-linecap:butt;stroke-linejoin:miter;stroke-miterlimit:4;stroke-dasharray:none;stroke-opacity:1"
           d="m 271.89594,314.28938 60.09429,-24.711"
           id="path59914" />
        <path
           style="fill:#ffffff;stroke:#ffffff;stroke-width:0.79375;stroke-linecap:butt;stroke-linejoin:miter;stroke-miterlimit:4;stroke-dasharray:none;stroke-opacity:1"
           d="m 271.6626,318.99587 26.23987,-0.15259"
           id="path59982" />
        <path
           style="fill:none;stroke:#ffffff;stroke-width:0.79375;stroke-linecap:butt;stroke-linejoin:miter;stroke-miterlimit:4;stroke-dasharray:none;stroke-opacity:1"
           d="m 237.63954,295.92177 12.38519,12.36027"
           id="path60050" />
        <path
           style="fill:none;stroke:#ffffff;stroke-width:0.79375;stroke-linecap:butt;stroke-linejoin:miter;stroke-miterlimit:4;stroke-dasharray:none;stroke-opacity:1"
           d="m 232.2556,249.17449 24.34112,58.09227"
           id="path60085" />
        <path
           style="fill:none;stroke:#ffffff;stroke-width:0.79375;stroke-linecap:butt;stroke-linejoin:miter;stroke-miterlimit:4;stroke-dasharray:none;stroke-opacity:1"
           d="m 230.95177,274.11055 25.68176,-60.64352"
           id="path60120" />
        <path
           style="fill:#ffffff;stroke:#ffffff;stroke-width:0.79375;stroke-linecap:butt;stroke-linejoin:miter;stroke-miterlimit:4;stroke-dasharray:none;stroke-opacity:1"
           d="m 236.80594,226.47031 14.17766,-13.1719"
           id="path60155" />
        <path
           style="fill:#ffffff;stroke:#ffffff;stroke-width:0.79375;stroke-linecap:butt;stroke-linejoin:miter;stroke-miterlimit:4;stroke-dasharray:none;stroke-opacity:1"
           d="m 238.86915,232.73178 54.89622,-23.22314"
           id="path60223" />
        <path
           style="fill:none;stroke:#ffffff;stroke-width:0.79375;stroke-linecap:butt;stroke-linejoin:miter;stroke-miterlimit:4;stroke-dasharray:none;stroke-opacity:1"
           d="m 270.93469,213.14345 61.70567,62.0934"
           id="path60358" />
        <path
           style="fill:none;stroke:#ffffff;stroke-width:0.79375;stroke-linecap:butt;stroke-linejoin:miter;stroke-miterlimit:4;stroke-dasharray:none;stroke-opacity:1"
           d="m 238.15727,280.05079 92.72329,-37.9108"
           id="path60393" />
        <path
           style="fill:none;stroke:#ffffff;stroke-width:0.79375;stroke-linecap:butt;stroke-linejoin:miter;stroke-miterlimit:4;stroke-dasharray:none;stroke-opacity:1"
           d="m 313.32469,213.97303 24.05878,58.9752"
           id="path60428" />
        <path
           style="fill:none;stroke:#ffffff;stroke-width:0.79375;stroke-linecap:butt;stroke-linejoin:miter;stroke-miterlimit:4;stroke-dasharray:none;stroke-opacity:1"
           d="m 318.61662,213.12749 13.75532,13.62685"
           id="path60463" />
        <path
           style="fill:none;stroke:#ffffff;stroke-width:0.79375;stroke-linecap:butt;stroke-linejoin:miter;stroke-miterlimit:4;stroke-dasharray:none;stroke-opacity:1"
           d="m 342.48691,248.65813 0.11628,24.36945"
           id="path60498" />
      </g>
      <text
         xml:space="preserve"
         style="font-style:normal;font-weight:normal;font-size:10.5833px;line-height:1.25;font-family:sans-serif;white-space:pre;inline-size:186.221;fill:#000000;fill-opacity:1;stroke:none;stroke-width:0.264583"
         x="271.77078"
         y="341.98328"
         id="text62338"
         transform="translate(-76.345083,-11.436405)"><tspan
           x="271.77078"
           y="341.98328"
           id="tspan90692"><tspan
             style="font-family:'Open Sans';-inkscape-font-specification:'Open Sans';text-align:center;text-anchor:middle;fill:#ffffff"
             id="tspan90686">By running a </tspan><tspan
             style="font-weight:bold"
             id="tspan90688">Handshake's full node</tspan><tspan
             style="font-family:'Open Sans';-inkscape-font-specification:'Open Sans';text-align:center;text-anchor:middle;fill:#ffffff"
             id="tspan90690">, </tspan></tspan><tspan
           x="271.77078"
           y="355.47808"
           id="tspan90696"><tspan
             style="font-family:'Open Sans';-inkscape-font-specification:'Open Sans';text-align:center;text-anchor:middle;fill:#ffffff"
             id="tspan90694">you can participate in securing the </tspan></tspan><tspan
           x="271.77078"
           y="368.97289"
           id="tspan90700"><tspan
             style="font-family:'Open Sans';-inkscape-font-specification:'Open Sans';text-align:center;text-anchor:middle;fill:#ffffff"
             id="tspan90698">network and serving the root zone </tspan></tspan><tspan
           x="271.77078"
           y="382.4677"
           id="tspan90704"><tspan
             style="font-family:'Open Sans';-inkscape-font-specification:'Open Sans';text-align:center;text-anchor:middle;fill:#ffffff"
             id="tspan90702">file embedded in the blockchain</tspan></tspan></text>
      <text
         xml:space="preserve"
         style="font-style:normal;font-weight:normal;font-size:10.5833px;line-height:1.25;font-family:sans-serif;white-space:pre;inline-size:186.221;fill:#000000;fill-opacity:1;stroke:none;stroke-width:0.264583"
         x="271.77078"
         y="341.98328"
         id="text89440"
         transform="translate(-76.179723,74.188609)"><tspan
           x="271.77078"
           y="341.98328"
           id="tspan90708"><tspan
             style="font-weight:bold;font-family:'Open Sans';-inkscape-font-specification:'Open Sans';text-align:center;text-anchor:middle;fill:#ffffff"
             id="tspan90706">handshake.org</tspan></tspan></text>
    </g>
  </g>
</svg>
