<?xml version="1.0" encoding="UTF-8" standalone="no"?>
<!-- Created with Inkscape (http://www.inkscape.org/) -->

<svg
   width="2160"
   height="2160"
   viewBox="0 0 571.49999 571.50002"
   version="1.1"
   id="svg5"
   inkscape:version="1.1.2 (08b2f3d93c, 2022-04-05)"
   sodipodi:docname="hns-purpose.svg"
   xmlns:inkscape="http://www.inkscape.org/namespaces/inkscape"
   xmlns:sodipodi="http://sodipodi.sourceforge.net/DTD/sodipodi-0.dtd"
   xmlns="http://www.w3.org/2000/svg"
   xmlns:svg="http://www.w3.org/2000/svg">
  <sodipodi:namedview
     id="namedview7"
     pagecolor="#ffffff"
     bordercolor="#999999"
     borderopacity="1"
     inkscape:pageshadow="0"
     inkscape:pageopacity="0"
     inkscape:pagecheckerboard="0"
     inkscape:document-units="px"
     showgrid="false"
     units="px"
     inkscape:zoom="0.21759259"
     inkscape:cx="1243.1489"
     inkscape:cy="1040.9362"
     inkscape:window-width="1366"
     inkscape:window-height="704"
     inkscape:window-x="0"
     inkscape:window-y="0"
     inkscape:window-maximized="1"
     inkscape:current-layer="layer1" />
  <defs
     id="defs2">
    <clipPath
       clipPathUnits="userSpaceOnUse"
       id="clipPath3805">
      <path
         style="fill:#87aade;fill-opacity:0.629743;stroke:#000000;stroke-width:0.264583px;stroke-linecap:butt;stroke-linejoin:miter;stroke-opacity:1"
         d="m 194.87785,137.7373 c -0.92035,8.82213 -4.81204,18.29948 3.47654,22.63975 2.54477,1.33256 2.82852,3.34051 5.15698,6.05909 l 146.6832,-16.35445 -0.21376,-61.61841 z"
         id="path3807"
         sodipodi:nodetypes="cscccc" />
    </clipPath>
  </defs>
  <g
     inkscape:label="Layer 1"
     inkscape:groupmode="layer"
     id="layer1">
    <g
       id="g47304"
       inkscape:export-filename="/home/human/Pictures/hns-purpose.png"
       inkscape:export-xdpi="96"
       inkscape:export-ydpi="96">
      <rect
         style="fill:#000000;stroke:none;stroke-width:2.64583;stroke-linecap:round;stroke-linejoin:round"
         id="rect843"
         width="285.75"
         height="285.75"
         x="107.77676"
         y="153.42853" />
      <g
         id="g4804"
         transform="matrix(0.77011512,-0.36942354,0.36942354,0.77011512,15.857059,223.04569)">
        <g
           id="g4677"
           transform="rotate(22.063896,244.90118,144.49426)">
          <path
             style="fill:#000000;stroke:#ffffff;stroke-width:1.73136;stroke-linecap:round;stroke-linejoin:round;stroke-miterlimit:4;stroke-dasharray:none;stroke-opacity:1"
             d="m 302.4421,108.4421 0.9371,-13.824424 22.60488,-10.822774 -12.09311,18.790068 z"
             id="path3860" />
          <path
             style="fill:#ffffff;stroke:#ffffff;stroke-width:1.32292;stroke-linecap:round;stroke-linejoin:round;stroke-miterlimit:4;stroke-dasharray:none;stroke-opacity:1"
             d="M 303.13737,98.781999 322.42883,89.34972"
             id="path4376" />
          <path
             style="fill:#ffffff;stroke:#ffffff;stroke-width:1.10144;stroke-linecap:round;stroke-linejoin:round;stroke-miterlimit:4;stroke-dasharray:none;stroke-opacity:1"
             d="m 303.02663,103.12607 15.97565,-7.895429"
             id="path4672" />
        </g>
        <g
           id="g4784"
           transform="matrix(0.92676552,-0.37564035,-0.37564035,-0.92676552,72.213086,364.02909)">
          <path
             style="fill:#000000;stroke:#ffffff;stroke-width:1.73136;stroke-linecap:round;stroke-linejoin:round;stroke-miterlimit:4;stroke-dasharray:none;stroke-opacity:1"
             d="m 302.4421,108.4421 0.9371,-13.824424 22.60488,-10.822774 -12.09311,18.790068 z"
             id="path4778" />
          <path
             style="fill:#ffffff;stroke:#ffffff;stroke-width:1.32292;stroke-linecap:round;stroke-linejoin:round;stroke-miterlimit:4;stroke-dasharray:none;stroke-opacity:1"
             d="M 303.13737,98.781999 322.42883,89.34972"
             id="path4780" />
          <path
             style="fill:#ffffff;stroke:#ffffff;stroke-width:1.10144;stroke-linecap:round;stroke-linejoin:round;stroke-miterlimit:4;stroke-dasharray:none;stroke-opacity:1"
             d="m 303.02663,103.12607 15.97565,-7.895429"
             id="path4782" />
        </g>
        <g
           id="g4696"
           transform="rotate(14.612893,224.99853,156.44824)">
          <circle
             style="fill:#000000;stroke:#ffffff;stroke-width:3.60701;stroke-linecap:round;stroke-linejoin:round;stroke-miterlimit:4;stroke-dasharray:none"
             id="path1009"
             cx="187.92302"
             cy="156.44824"
             r="63.424999" />
          <circle
             style="fill:#000000;stroke:#ffffff;stroke-width:3.25532;stroke-linecap:round;stroke-linejoin:round;stroke-miterlimit:4;stroke-dasharray:none"
             id="circle1135"
             cx="187.92302"
             cy="156.44824"
             r="46.943062" />
          <circle
             style="fill:#000000;stroke:#ffffff;stroke-width:2.99775;stroke-linecap:round;stroke-linejoin:round;stroke-miterlimit:4;stroke-dasharray:none"
             id="circle1137"
             cx="187.92302"
             cy="156.44824"
             r="29.134377" />
          <circle
             style="fill:#000000;stroke:#ffffff;stroke-width:2.70526;stroke-linecap:round;stroke-linejoin:round;stroke-miterlimit:4;stroke-dasharray:none"
             id="circle1303"
             cx="187.92302"
             cy="156.44824"
             r="13.212298" />
          <g
             id="g2441"
             transform="translate(-8.5968077,1.8014024)"
             clip-path="url(#clipPath3805)">
            <path
               style="fill:#ffffff;stroke:#ffffff;stroke-width:2.64583;stroke-linecap:round;stroke-linejoin:round;stroke-miterlimit:4;stroke-dasharray:none;stroke-opacity:1"
               d="M 306.17395,121.35303 200.48253,152.6304"
               id="path1380" />
            <circle
               style="fill:#000000;stroke:#ffffff;stroke-width:2.64583;stroke-linecap:round;stroke-linejoin:round;stroke-miterlimit:4;stroke-dasharray:none"
               id="path1649"
               cx="203.24649"
               cy="-274.14282"
               r="14.026939"
               transform="rotate(73.514879)" />
            <path
               id="path1775"
               style="stroke:#ffffff;stroke-width:2.04635;stroke-linecap:round;stroke-linejoin:round"
               inkscape:transform-center-x="-2.3511935e-06"
               inkscape:transform-center-y="3.8724833"
               d="m 213.56553,163.04441 -13.083,-10.41401 5.46973,-15.31248 c -5.33222,8.59429 -11.27155,15.63768 -18.47317,19.45653 10.72776,-0.87183 17.62944,3.8324 26.08644,6.26996 z"
               sodipodi:nodetypes="ccccc" />
            <path
               d="m 326.56272,111.30651 -1.81439,-1.7607 2.30414,-0.68112 c 0.0616,-0.0182 0.14538,0.001 0.19544,0.0468 0.0547,0.0496 0.33291,0.30262 0.66733,0.60663 0.40026,0.36392 0.87886,0.79892 1.1524,1.04712 z m -0.47499,14.05587 c -0.0261,0.11651 -0.0986,0.13796 -0.12213,0.14493 l -0.9413,0.27856 c -0.49829,0.14709 -1.07312,0.31682 -1.41522,0.41806 l 1.71588,-7.65559 c 0.0286,-0.12732 -0.0121,-0.25987 -0.10647,-0.34921 -0.0952,-0.0892 -0.22968,-0.12127 -0.35416,-0.0844 l -3.3e-4,1e-4 -6.23692,1.85404 -1.87624,-1.78098 9.08757,-2.6893 c 6.9e-4,-2e-4 8.6e-4,-6.3e-4 0.003,-10e-4 9.6e-4,-2.8e-4 0.002,-2.1e-4 0.003,-5e-4 0.005,-0.001 0.009,-0.004 0.0149,-0.006 0.02,-0.007 0.0398,-0.0151 0.0579,-0.0255 0.0144,-0.008 0.0273,-0.0164 0.0401,-0.0269 0.007,-0.005 0.0135,-0.0107 0.0201,-0.016 0.059,-0.0504 0.10447,-0.11811 0.12201,-0.20013 l 0.67843,-3.21269 2.47296,-0.73182 z m -3.19163,0.67288 c -0.11835,-0.10741 -0.27212,-0.24713 -0.43949,-0.39908 -0.56338,-0.5127 -1.28497,-1.16894 -1.36568,-1.24042 -0.0271,-0.0243 -0.0571,-0.0941 -0.0383,-0.17456 0.0411,-0.18359 0.81473,-3.65824 1.00313,-4.5051 l 2.41831,-0.71899 z m -5.34285,-2.89207 -1.83472,-1.78067 0.53965,-2.63061 1.8386,1.745 c -0.1673,0.82317 -0.42863,2.10722 -0.54353,2.66628 z m -1.51549,0.81026 c -0.61212,0.18115 -1.22094,0.36095 -1.31039,0.38742 l -3.4e-4,1e-4 c -0.0598,0.0177 -0.14477,-0.003 -0.19364,-0.047 l -0.58234,-0.52934 c -0.41496,-0.3774 -0.94423,-0.85864 -1.23749,-1.12473 l 2.50492,-0.74129 1.81406,1.76079 c -0.25947,0.0768 -0.62685,0.18514 -0.99478,0.29402 z m -0.34419,-16.11033 c 0.026,-0.11682 0.0982,-0.13818 0.12158,-0.1451 l 2.36661,-0.69999 -1.72573,7.65852 c -10e-4,0.007 -0.002,0.0122 -0.003,0.0193 -0.003,0.0125 -0.004,0.0253 -0.005,0.0383 3.1e-4,0.0116 -0.001,0.0244 -8.5e-4,0.0366 3.1e-4,0.0116 10e-4,0.0227 0.004,0.0334 0.002,0.0144 0.005,0.0272 0.009,0.0401 0.001,0.006 0.001,0.0113 0.003,0.018 10e-4,0.005 0.004,0.009 0.005,0.012 0.004,0.0122 0.009,0.025 0.0142,0.0373 0.004,0.0105 0.009,0.0204 0.0151,0.03 0.006,0.01 0.0122,0.0202 0.0204,0.0296 0.006,0.01 0.014,0.0193 0.0216,0.0281 0.008,0.009 0.0166,0.0167 0.0248,0.025 0.008,0.008 0.0164,0.0159 0.0264,0.023 0.008,0.007 0.0191,0.0136 0.0295,0.0202 0.01,0.005 0.0204,0.0122 0.0304,0.0178 0.01,0.005 0.0207,0.009 0.0316,0.0132 0.0119,0.005 0.0242,0.01 0.0367,0.0126 0.006,0.002 0.009,0.004 0.013,0.004 0.006,0.002 0.0105,2.3e-4 0.0136,9.7e-4 0.0208,0.004 0.0422,0.006 0.0639,0.006 0.008,-7.4e-4 0.0152,5.1e-4 0.0232,-2e-4 0.0273,-0.001 0.0544,-0.006 0.082,-0.0143 3.3e-4,-1e-4 4.3e-4,2.4e-4 7.9e-4,1.4e-4 l 3.3e-4,-1e-4 3.5e-4,-1e-4 0.15532,-0.0463 c 6.9e-4,-2e-4 10e-4,6e-5 0.002,-2.2e-4 l 3.4e-4,-1e-4 6.08015,-1.80765 c 0.24364,0.23217 0.70007,0.66965 1.0888,1.0422 0.29854,0.28642 0.5452,0.52252 0.73919,0.70817 l -9.05116,2.67852 c -0.005,10e-4 -0.007,0.004 -0.0118,0.005 -0.12266,0.038 -0.22188,0.13879 -0.24983,0.2743 l -0.66718,3.25204 -2.47125,0.73132 c 0.50579,-2.25511 3.12636,-13.9336 3.16028,-14.08391 z m 3.19906,-0.66654 0.32671,0.29665 c 0.57438,0.52243 1.38545,1.25979 1.47092,1.33616 0.0271,0.0243 0.0571,0.0937 0.0383,0.17457 l -1.00313,4.5051 -2.4173,0.71869 z m 5.33358,2.88331 1.83572,1.78148 -0.55569,2.63015 c -0.22171,-0.21193 -0.49746,-0.47616 -0.75618,-0.72428 -0.51122,-0.49029 -0.88387,-0.84719 -1.09337,-1.04642 0.11987,-0.55607 0.43642,-2.02715 0.56952,-2.64093 z"
               id="Fill-1"
               style="fill:#ffffff;fill-rule:evenodd;stroke:none;stroke-width:0.424626" />
          </g>
        </g>
      </g>
      <path
         d="m 237.68454,248.22647 v -3.4237 h 0.56621 v 1.34408 c 0.0794,-0.10583 0.29633,-0.31221 0.66146,-0.31221 0.4445,0 0.8255,0.1905 0.8255,0.94721 v 1.44462 h -0.56621 v -1.3335 c 0,-0.381 -0.0794,-0.58737 -0.42333,-0.58737 -0.254,0 -0.39688,0.10054 -0.49742,0.21167 v 1.7092 z m 3.6195,0.0529 c -0.45508,0 -0.8255,-0.20108 -0.8255,-0.66675 0,-0.53975 0.48154,-0.68262 0.96308,-0.68262 0.24342,0 0.50271,0.0423 0.6403,0.0847 v -0.1905 c 0,-0.30162 -0.0529,-0.53975 -0.48684,-0.53975 -0.32808,0 -0.51858,0.13229 -0.51858,0.40746 h -0.53446 c 0,-0.64029 0.52388,-0.85725 1.09008,-0.85725 0.60855,0 1.016,0.25929 1.016,0.91546 v 0.96837 c 0,0.09 0.0317,0.12171 0.127,0.12171 0.0635,0 0.15875,-0.0159 0.22225,-0.0317 v 0.37571 c -0.0952,0.0423 -0.27516,0.0952 -0.44979,0.0952 -0.29633,0 -0.381,-0.15346 -0.381,-0.32808 v -0.0423 c -0.12171,0.15346 -0.381,0.37042 -0.86254,0.37042 z m 0.13229,-0.42333 c 0.29634,0 0.52917,-0.10054 0.64559,-0.19579 v -0.29634 c -0.10055,-0.0265 -0.3175,-0.0476 -0.51859,-0.0476 -0.31221,0 -0.51858,0.0582 -0.51858,0.28046 0,0.17991 0.13229,0.25929 0.39158,0.25929 z m 2.17488,0.37041 v -2.33891 h 0.49212 v 0.3175 c 0.11113,-0.15346 0.32809,-0.37042 0.72496,-0.37042 0.4445,0 0.83608,0.1905 0.83608,0.94721 v 1.44462 h -0.5662 v -1.3335 c 0,-0.381 -0.0794,-0.58737 -0.42334,-0.58737 -0.254,0 -0.39687,0.10054 -0.49741,0.21167 v 1.7092 z m 3.75708,0.0529 c -0.51858,0 -0.97896,-0.35983 -0.97896,-1.22237 0,-0.86255 0.47096,-1.22238 0.97896,-1.22238 0.37042,0 0.60325,0.1905 0.6985,0.29633 v -1.3282 h 0.56621 v 3.4237 h -0.49213 v -0.30691 c -0.1217,0.16404 -0.3757,0.35983 -0.77258,0.35983 z m 0.17463,-0.47096 c 0.23812,0 0.41275,-0.10054 0.52387,-0.20637 v -1.09009 c -0.11112,-0.10583 -0.28575,-0.20637 -0.52387,-0.20637 -0.40217,0 -0.5715,0.30162 -0.5715,0.75142 0,0.44979 0.16933,0.75141 0.5715,0.75141 z m 3.00566,0.47096 c -0.62441,0 -1.13771,-0.21167 -1.15358,-0.78846 h 0.55562 c 0.0212,0.24871 0.27517,0.35454 0.62971,0.35454 0.32279,0 0.57679,-0.0476 0.57679,-0.26458 0,-0.23283 -0.35454,-0.26987 -0.8255,-0.35454 -0.45508,-0.0794 -0.89429,-0.21167 -0.89429,-0.70379 0,-0.48154 0.49742,-0.68792 1.07421,-0.68792 0.57679,0 1.06892,0.15346 1.11125,0.74083 h -0.55562 c -0.037,-0.254 -0.30692,-0.30691 -0.55034,-0.30691 -0.32279,0 -0.50271,0.0635 -0.50271,0.22225 0,0.21166 0.28046,0.24871 0.83609,0.33866 0.43391,0.0688 0.889,0.21167 0.889,0.69321 0,0.56621 -0.53446,0.75671 -1.19063,0.75671 z m 1.95263,-0.0529 v -3.4237 h 0.56621 v 1.34408 c 0.0794,-0.10583 0.29633,-0.31221 0.66145,-0.31221 0.4445,0 0.8255,0.1905 0.8255,0.94721 v 1.44462 h -0.5662 v -1.3335 c 0,-0.381 -0.0794,-0.58737 -0.42334,-0.58737 -0.254,0 -0.39687,0.10054 -0.49741,0.21167 v 1.7092 z m 3.6195,0.0529 c -0.45509,0 -0.8255,-0.20108 -0.8255,-0.66675 0,-0.53975 0.48154,-0.68262 0.96308,-0.68262 0.24342,0 0.50271,0.0423 0.64029,0.0847 v -0.1905 c 0,-0.30162 -0.0529,-0.53975 -0.48683,-0.53975 -0.32808,0 -0.51858,0.13229 -0.51858,0.40746 h -0.53446 c 0,-0.64029 0.52387,-0.85725 1.09008,-0.85725 0.60854,0 1.016,0.25929 1.016,0.91546 v 0.96837 c 0,0.09 0.0317,0.12171 0.127,0.12171 0.0635,0 0.15875,-0.0159 0.22225,-0.0317 v 0.37571 c -0.0952,0.0423 -0.27517,0.0952 -0.44979,0.0952 -0.29633,0 -0.381,-0.15346 -0.381,-0.32808 v -0.0423 c -0.12171,0.15346 -0.381,0.37042 -0.86254,0.37042 z m 0.13229,-0.42333 c 0.29633,0 0.52917,-0.10054 0.64558,-0.19579 v -0.29634 c -0.10054,-0.0265 -0.3175,-0.0476 -0.51858,-0.0476 -0.31221,0 -0.51858,0.0582 -0.51858,0.28046 0,0.17991 0.13229,0.25929 0.39158,0.25929 z m 2.17487,0.37041 v -3.4237 h 0.56621 v 1.9685 l 1.016,-0.88371 h 0.75142 l -1.01071,0.85725 1.06892,1.48166 h -0.68263 l -0.78846,-1.16945 -0.35454,0.28575 v 0.8837 z m 4.02167,0.0529 c -0.67733,0 -1.23296,-0.33337 -1.23296,-1.21179 0,-0.93663 0.62442,-1.23296 1.20121,-1.23296 0.59796,0 1.20121,0.29633 1.20121,1.22238 v 0.127 h -1.83092 c 0.0159,0.40745 0.21696,0.65616 0.67204,0.65616 0.31221,0 0.52917,-0.127 0.5715,-0.35454 h 0.58209 c -0.11113,0.60325 -0.65617,0.79375 -1.16417,0.79375 z m -0.65087,-1.49225 h 1.23825 c -0.0476,-0.35983 -0.31221,-0.51329 -0.61913,-0.51329 -0.30692,0 -0.5715,0.15346 -0.61912,0.51329 z"
         id="handshake-smol"
         style="fill:#000000;fill-rule:evenodd;stroke:none;stroke-width:0.264583" />
      <text
         xml:space="preserve"
         style="font-style:normal;font-weight:normal;font-size:8.45896px;line-height:1.25;font-family:sans-serif;fill:#000000;fill-opacity:1;stroke:none;stroke-width:0.211474"
         x="218.8873"
         y="432.57471"
         id="text6942"><tspan
           sodipodi:role="line"
           id="tspan6940"
           style="font-style:normal;font-variant:normal;font-weight:bold;font-stretch:normal;font-family:'Open Sans';-inkscape-font-specification:'Open Sans Bold';fill:#ffffff;stroke-width:0.211474"
           x="218.8873"
           y="432.57471">handshake.org</tspan></text>
      <text
         xml:space="preserve"
         style="font-style:normal;font-weight:normal;font-size:10.5833px;line-height:1.25;font-family:sans-serif;white-space:pre;inline-size:196.74;fill:#000000;fill-opacity:1;stroke:none;stroke-width:0.264583"
         x="225.28062"
         y="250.60828"
         id="text13252"
         transform="translate(-73.475035,103.40802)"><tspan
           x="225.28062"
           y="250.60828"
           id="tspan47462"><tspan
             style="font-weight:bold;text-align:center;text-anchor:middle"
             id="tspan47454">Handshake's</tspan><tspan
             style="font-family:'Open Sans';-inkscape-font-specification:'Open Sans';text-align:center;text-anchor:middle;fill:#ffffff"
             id="tspan47456"> purpose is </tspan><tspan
             style="font-weight:bold;text-align:center;text-anchor:middle"
             id="tspan47458">not</tspan><tspan
             style="font-family:'Open Sans';-inkscape-font-specification:'Open Sans';text-align:center;text-anchor:middle;fill:#ffffff"
             id="tspan47460"> to replace </tspan></tspan><tspan
           x="225.28062"
           y="264.10307"
           id="tspan47474"><tspan
             style="font-family:'Open Sans';-inkscape-font-specification:'Open Sans';text-align:center;text-anchor:middle;fill:#ffffff"
             id="tspan47464">DNS, but </tspan><tspan
             style="font-weight:bold;text-align:center;text-anchor:middle"
             id="tspan47466">to replace</tspan><tspan
             style="font-family:'Open Sans';-inkscape-font-specification:'Open Sans';text-align:center;text-anchor:middle;fill:#ffffff"
             id="tspan47468"> the </tspan><tspan
             style="font-weight:bold;text-align:center;text-anchor:middle"
             id="tspan47470">root zone</tspan><tspan
             style="font-family:'Open Sans';-inkscape-font-specification:'Open Sans';text-align:center;text-anchor:middle;fill:#ffffff"
             id="tspan47472"> file </tspan></tspan><tspan
           x="225.28062"
           y="277.59786"
           id="tspan47482"><tspan
             style="font-family:'Open Sans';-inkscape-font-specification:'Open Sans';text-align:center;text-anchor:middle;fill:#ffffff"
             id="tspan47476">and the </tspan><tspan
             style="font-weight:bold;text-align:center;text-anchor:middle"
             id="tspan47478">root servers</tspan><tspan
             style="font-family:'Open Sans';-inkscape-font-specification:'Open Sans';text-align:center;text-anchor:middle;fill:#ffffff"
             id="tspan47480">.</tspan></tspan></text>
    </g>
  </g>
</svg>
